<svg width="606" height="544" xmlns="http://www.w3.org/2000/svg" xmlns:xlink="http://www.w3.org/1999/xlink" overflow="hidden"><defs><clipPath id="clip0"><path d="M125 93 731 93 731 637 125 637Z" fill-rule="evenodd" clip-rule="evenodd"/></clipPath></defs><g clip-path="url(#clip0)" transform="translate(-125 -93)"><rect x="126.5" y="103.5" width="180" height="63" stroke="#29BA74" stroke-linecap="round" stroke-linejoin="round" stroke-miterlimit="10" fill="#29BA74"/><text fill="#FFFFFF" font-family="Segoe UI,Segoe UI_MSFontService,sans-serif" font-weight="400" font-size="16" transform="translate(148.314 141)">1<tspan x="8.66667" y="0">. Feature </tspan><tspan x="73.2867" y="0">selection </tspan></text><rect x="126.5" y="215.5" width="180" height="62" stroke="#29BA74" stroke-linecap="round" stroke-linejoin="round" stroke-miterlimit="10" fill="#29BA74"/><text fill="#FFFFFF" font-family="Segoe UI,Segoe UI_MSFontService,sans-serif" font-weight="400" font-size="16" transform="translate(148.391 253)">2<tspan x="8.66666" y="0">.</tspan><tspan x="16.5" y="0">Learner selection</tspan></text><rect x="126.5" y="330.5" width="180" height="63" stroke="#29BA74" stroke-linecap="round" stroke-linejoin="round" stroke-miterlimit="10" fill="#29BA74"/><text fill="#FFFFFF" font-family="Segoe UI,Segoe UI_MSFontService,sans-serif" font-weight="400" font-size="16" transform="translate(143.391 368)">3. Learner inspection</text><rect x="126.5" y="445.5" width="180" height="63" stroke="#29BA74" stroke-linecap="round" stroke-linejoin="round" stroke-miterlimit="10" fill="#29BA74"/><text fill="#FFFFFF" font-family="Segoe UI,Segoe UI_MSFontService,sans-serif" font-weight="400" font-size="16" transform="translate(135.814 472)">4. Independent feature <tspan x="38.2267" y="25">engineering</tspan></text><rect x="126.5" y="559.5" width="180" height="63" stroke="#29BA74" stroke-linecap="round" stroke-linejoin="round" stroke-miterlimit="10" fill="#29BA74"/><text fill="#FFFFFF" font-family="Segoe UI,Segoe UI_MSFontService,sans-serif" font-weight="400" font-size="16" transform="translate(172.581 586)">5. Univariate <tspan x="6.95999" y="25">simulation</tspan><tspan fill="#333333" x="172.019" y="-13">Use historical simulation for your important </tspan><tspan fill="#333333" x="172.019" y="12">independent features to gain critical insights into </tspan><tspan fill="#333333" x="172.019" y="37">optimal values for your desired outcome.</tspan><tspan fill="#333333" x="172.019" y="-128">Use redundancy to further eliminate unnecessary </tspan><tspan fill="#333333" x="172.019" y="-103">features from your model, that cannot be identified </tspan><tspan fill="#333333" x="172.019" y="-78">through correlation or typical feature selection.</tspan><tspan fill="#333333" x="172.019" y="-242">Gain a deeper understanding of important features </tspan><tspan fill="#333333" x="172.019" y="-217">using SHAP values and </tspan><tspan fill="#333333" x="336.899" y="-217">FACET's</tspan><tspan fill="#333333" x="394.499" y="-217">novel algorithm for </tspan><tspan fill="#333333" x="172.019" y="-192">advanced model inspection (redundancy, synergy). </tspan><tspan fill="#333333" x="172.019" y="-357">Combine pre</tspan><tspan fill="#333333" x="262.806" y="-357">-</tspan><tspan fill="#333333" x="269.139" y="-357">processing with a grid of learners and </tspan><tspan fill="#333333" x="172.019" y="-332">hyper</tspan><tspan fill="#333333" x="211.852" y="-332">-</tspan><tspan fill="#333333" x="218.186" y="-332">parameters in a robust workflow to select the </tspan><tspan fill="#333333" x="172.019" y="-307">best learner with cross</tspan><tspan fill="#333333" x="329.106" y="-307">-</tspan><tspan fill="#333333" x="335.439" y="-307">validation.</tspan><tspan fill="#333333" x="172.019" y="-469">Create a robust and reproducible pre</tspan><tspan fill="#333333" x="430.826" y="-469">-</tspan><tspan fill="#333333" x="437.159" y="-469">processing </tspan><tspan fill="#333333" x="172.019" y="-444">pipeline to easily pre</tspan><tspan fill="#333333" x="317.179" y="-444">-</tspan><tspan fill="#333333" x="323.512" y="-444">process your data and select </tspan><tspan fill="#333333" x="172.019" y="-419">your features.</tspan></text><path d="M217 166.5 217 208.645C217 208.922 216.776 209.145 216.5 209.145 216.224 209.145 216 208.922 216 208.645L216 166.5C216 166.224 216.224 166 216.5 166 216.776 166 217 166.224 217 166.5ZM220.5 207.312 216.5 215.312 212.5 207.312Z" fill="#9A9A9A"/><path d="M217 277.5 217 323.346C217 323.622 216.776 323.846 216.5 323.846 216.224 323.846 216 323.622 216 323.346L216 277.5C216 277.224 216.224 277 216.5 277 216.776 277 217 277.224 217 277.5ZM220.5 322.013 216.5 330.013 212.5 322.013Z" fill="#9A9A9A"/><path d="M217 393.5 217 439.346C217 439.622 216.776 439.846 216.5 439.846 216.224 439.846 216 439.622 216 439.346L216 393.5C216 393.224 216.224 393 216.5 393 216.776 393 217 393.224 217 393.5ZM220.5 438.013 216.5 446.013 212.5 438.013Z" fill="#9A9A9A"/><path d="M217 508.5 217 553.028C217 553.304 216.776 553.528 216.5 553.528 216.224 553.528 216 553.304 216 553.028L216 508.5C216 508.224 216.224 508 216.5 508 216.776 508 217 508.224 217 508.5ZM220.5 551.694 216.5 559.695 212.5 551.695Z" fill="#9A9A9A"/></g></svg>