<svg width="1044" height="186" viewBox="0 0 1044 186" fill="none" xmlns="http://www.w3.org/2000/svg">
<path d="M255.568 106.527V114.817C252.805 116.859 247.639 118.301 243.554 118.301C224.092 118.301 221.329 98.8384 221.329 92.5913C221.329 86.3441 224.092 67.8429 243.554 67.8429C249.441 67.8429 257.01 71.4471 262.056 75.8922C262.897 76.613 264.218 76.613 265.059 75.772L274.069 65.9207C274.91 65.0798 274.91 63.6381 274.069 62.7972C265.9 54.7479 256.409 49.7022 243.554 49.7022C211.598 49.7022 201.747 75.2915 201.747 92.8316C201.747 110.852 211.598 136.081 243.554 136.081C255.929 136.081 265.42 131.996 273.349 124.668C274.31 123.707 274.91 122.385 274.91 120.944V91.0295C274.91 89.8281 273.949 88.867 272.748 88.867H241.752C240.551 88.867 239.59 89.8281 239.59 91.0295V104.365C239.59 105.566 240.551 106.527 241.752 106.527H255.568Z" fill="black"/>
<path d="M323.144 51.8646C322.663 50.6633 321.462 49.9425 320.261 49.9425C319.059 49.9425 317.858 50.6633 317.377 51.8646L280.495 133.078C280.135 133.919 280.856 135 281.817 135H298.996C300.318 135 301.519 134.159 302 132.958L308.007 117.94H332.755L338.762 132.958C339.242 134.159 340.444 135 341.765 135H358.945C359.906 135 360.627 133.919 360.146 133.078L323.144 51.8646ZM320.381 87.3052L326.628 102.923H314.014L320.381 87.3052Z" fill="black"/>
<path d="M416.151 98.8385L394.406 51.7445C393.925 50.6633 392.724 49.9425 391.523 49.9425C390.441 49.9425 389.36 50.6633 388.88 51.8646L359.686 132.958C359.326 133.919 360.047 135 361.128 135H377.226C378.548 135 379.629 134.159 380.11 132.958L393.925 91.1496L413.388 134.159C413.868 135.24 414.95 135.961 416.151 135.961C417.352 135.961 418.434 135.24 418.914 134.159L438.376 91.1496L452.192 132.958C452.673 134.159 453.754 135 455.076 135H471.174C472.255 135 472.976 133.919 472.616 132.958L443.422 51.8646C442.942 50.6633 441.86 49.9425 440.659 49.9425C439.458 49.9425 438.376 50.6633 437.896 51.7445L416.151 98.8385Z" fill="black"/>
<path d="M528.312 98.8385L506.567 51.7445C506.087 50.6633 504.885 49.9425 503.684 49.9425C502.603 49.9425 501.522 50.6633 501.041 51.8646L471.848 132.958C471.487 133.919 472.208 135 473.289 135H489.388C490.709 135 491.79 134.159 492.271 132.958L506.087 91.1496L525.549 134.159C526.03 135.24 527.111 135.961 528.312 135.961C529.514 135.961 530.595 135.24 531.075 134.159L550.538 91.1496L564.354 132.958C564.834 134.159 565.915 135 567.237 135H583.335C584.417 135 585.137 133.919 584.777 132.958L555.584 51.8646C555.103 50.6633 554.022 49.9425 552.82 49.9425C551.619 49.9425 550.538 50.6633 550.057 51.7445L528.312 98.8385Z" fill="black"/>
<path d="M626.778 51.8646C626.297 50.6633 625.096 49.9425 623.895 49.9425C622.693 49.9425 621.492 50.6633 621.011 51.8646L584.129 133.078C583.769 133.919 584.49 135 585.451 135H602.63C603.952 135 605.153 134.159 605.634 132.958L611.641 117.94H636.389L642.396 132.958C642.876 134.159 644.078 135 645.399 135H662.579C663.54 135 664.261 133.919 663.78 133.078L626.778 51.8646ZM624.015 87.3052L630.262 102.923H617.648L624.015 87.3052Z" fill="black"/>
<path d="M737.994 96.5558C738.955 96.5558 739.676 95.835 739.676 94.8739V92.2309C739.676 91.2698 738.955 90.549 737.994 90.549H703.875V56.9104H747.965C748.926 56.9104 749.647 56.1896 749.647 55.2285V52.5855C749.647 51.6244 748.926 50.9035 747.965 50.9035H697.988C697.027 50.9035 696.306 51.6244 696.306 52.5855V133.318C696.306 134.279 697.027 135 697.988 135H702.193C703.154 135 703.875 134.279 703.875 133.318V96.5558H737.994Z" fill="black"/>
<path d="M812.306 133.318C812.666 134.279 813.628 134.88 814.589 134.88H819.755C820.596 134.88 821.076 134.039 820.836 133.318L786.597 50.7834C786.236 50.1827 785.636 49.7022 784.915 49.7022C784.194 49.7022 783.473 50.1827 783.233 50.7834L748.994 133.318C748.753 134.039 749.234 134.88 750.075 134.88H755.241C756.202 134.88 757.163 134.279 757.523 133.318L766.534 110.852H803.176L812.306 133.318ZM784.915 65.6805L800.893 105.326H768.816L784.915 65.6805Z" fill="black"/>
<path d="M896.959 62.0763C897.559 61.4757 897.439 60.3944 896.718 59.7937C889.51 53.5466 880.86 49.582 868.606 49.582C836.529 49.582 827.159 75.2915 827.159 92.4712C827.159 110.492 836.529 135.841 868.606 135.841C880.259 135.841 889.39 131.756 896.478 126.23C897.199 125.629 897.319 124.548 896.718 123.827L894.676 121.064C894.075 120.343 892.994 120.223 892.273 120.704C886.146 125.149 877.737 128.873 868.606 128.873C839.052 128.873 834.968 101.842 834.968 92.4712C834.968 83.581 839.052 56.6702 868.606 56.1896C877.496 56.0695 886.146 60.034 892.153 64.8395C892.874 65.4402 893.955 65.3201 894.556 64.7194L896.959 62.0763Z" fill="black"/>
<path d="M958.903 96.5558C959.864 96.5558 960.585 95.835 960.585 94.8739V92.2309C960.585 91.2698 959.864 90.549 958.903 90.549H924.784V56.9104H968.874C969.836 56.9104 970.556 56.1896 970.556 55.2285V52.5855C970.556 51.6244 969.836 50.9035 968.874 50.9035H918.897C917.936 50.9035 917.215 51.6244 917.215 52.5855V133.318C917.215 134.279 917.936 135 918.897 135H968.874C969.836 135 970.556 134.279 970.556 133.318V130.675C970.556 129.714 969.836 128.993 968.874 128.993H924.784V96.5558H958.903Z" fill="black"/>
<path d="M1009.02 133.318C1009.02 134.279 1009.74 135 1010.7 135H1015.03C1015.99 135 1016.71 134.279 1016.71 133.318V56.9104H1041.34C1042.3 56.9104 1043.02 56.1896 1043.02 55.2285V52.5855C1043.02 51.6244 1042.3 50.9035 1041.34 50.9035H984.753C983.792 50.9035 983.071 51.6244 983.071 52.5855V55.2285C983.071 56.1896 983.792 56.9104 984.753 56.9104H1009.02V133.318Z" fill="black"/>
<path fill-rule="evenodd" clip-rule="evenodd" d="M82.8458 6.39455C84.4913 5.47345 85.0785 3.3928 84.1574 1.74729C83.2363 0.101787 81.1557 -0.485458 79.5102 0.435644L3.49338 42.9874C1.33616 44.195 1.82657e-05 46.4741 1.77454e-05 48.9464L0 137.791C-1.19915e-07 138.361 0.139539 138.898 0.386306 139.37C0.203051 140.711 0.832771 142.09 2.08141 142.801L75.3057 184.468C79.8582 187.059 85.5121 183.771 85.5121 178.533L85.5121 88.973C85.5121 87.0872 83.9834 85.5585 82.0976 85.5585C80.2118 85.5585 78.6831 87.0872 78.6831 88.973L78.6831 178.533L45.8222 159.834L45.8222 70.9153L122.768 27.8277C124.413 26.9063 125 24.8256 124.079 23.1802C123.157 21.5349 121.076 20.948 119.431 21.8693L42.4857 64.9569C40.329 66.1646 38.9933 68.4434 38.9933 70.9153L38.9932 155.948L6.82897 137.645L6.82899 48.9464L82.8458 6.39455ZM158.037 146.49C156.152 146.49 154.623 144.962 154.623 143.076L154.623 44.5851C154.623 42.6994 156.152 41.1707 158.037 41.1707C159.923 41.1707 161.452 42.6994 161.452 44.5851L161.452 143.076C161.452 144.962 159.923 146.49 158.037 146.49ZM120.524 167.465C118.638 167.465 117.109 165.936 117.109 164.05L117.109 66.78C117.109 64.8943 118.638 63.3656 120.524 63.3656C122.409 63.3656 123.938 64.8943 123.938 66.78L123.938 164.05C123.938 165.936 122.409 167.465 120.524 167.465Z" fill="url(#paint0_linear)"/>
<defs>
<linearGradient id="paint0_linear" x1="-8.27444e-06" y1="157.778" x2="139.884" y2="-7.08502" gradientUnits="userSpaceOnUse">
<stop stop-color="#075B5A"/>
<stop offset="1" stop-color="#40FBA1"/>
</linearGradient>
</defs>
</svg>
