<svg width="781" height="134" viewBox="0 0 781 134" fill="none" xmlns="http://www.w3.org/2000/svg">
<path d="M190.457 76.7806V82.9906C188.387 84.5206 184.517 85.6006 181.457 85.6006C166.877 85.6006 164.807 71.0206 164.807 66.3406C164.807 61.6606 166.877 47.8006 181.457 47.8006C185.867 47.8006 191.537 50.5006 195.317 53.8306C195.947 54.3706 196.937 54.3706 197.567 53.7406L204.317 46.3606C204.947 45.7306 204.947 44.6506 204.317 44.0206C198.197 37.9906 191.087 34.2106 181.457 34.2106C157.517 34.2106 150.137 53.3806 150.137 66.5206C150.137 80.0206 157.517 98.9206 181.457 98.9206C190.727 98.9206 197.837 95.8606 203.777 90.3706C204.497 89.6506 204.947 88.6606 204.947 87.5806V65.1706C204.947 64.2706 204.227 63.5506 203.327 63.5506H180.107C179.207 63.5506 178.487 64.2706 178.487 65.1706V75.1606C178.487 76.0606 179.207 76.7806 180.107 76.7806H190.457Z" fill="black"/>
<path d="M241.08 35.8306C240.72 34.9306 239.82 34.3906 238.92 34.3906C238.02 34.3906 237.12 34.9306 236.76 35.8306L209.13 96.6706C208.86 97.3006 209.4 98.1106 210.12 98.1106H222.99C223.98 98.1106 224.88 97.4806 225.24 96.5806L229.74 85.3306H248.28L252.78 96.5806C253.14 97.4806 254.04 98.1106 255.03 98.1106H267.9C268.62 98.1106 269.16 97.3006 268.8 96.6706L241.08 35.8306ZM239.01 62.3806L243.69 74.0806H234.24L239.01 62.3806Z" fill="black"/>
<path d="M310.756 71.0206L294.466 35.7406C294.106 34.9306 293.206 34.3906 292.306 34.3906C291.496 34.3906 290.686 34.9306 290.326 35.8306L268.456 96.5806C268.186 97.3006 268.726 98.1106 269.536 98.1106H281.596C282.586 98.1106 283.396 97.4806 283.756 96.5806L294.106 65.2606L308.686 97.4806C309.046 98.2906 309.856 98.8306 310.756 98.8306C311.656 98.8306 312.466 98.2906 312.826 97.4806L327.406 65.2606L337.756 96.5806C338.116 97.4806 338.926 98.1106 339.916 98.1106H351.976C352.786 98.1106 353.326 97.3006 353.056 96.5806L331.186 35.8306C330.826 34.9306 330.016 34.3906 329.116 34.3906C328.216 34.3906 327.406 34.9306 327.046 35.7406L310.756 71.0206Z" fill="black"/>
<path d="M394.78 71.0206L378.49 35.7406C378.13 34.9306 377.23 34.3906 376.33 34.3906C375.52 34.3906 374.71 34.9306 374.35 35.8306L352.48 96.5806C352.21 97.3006 352.75 98.1106 353.56 98.1106H365.62C366.61 98.1106 367.42 97.4806 367.78 96.5806L378.13 65.2606L392.71 97.4806C393.07 98.2906 393.88 98.8306 394.78 98.8306C395.68 98.8306 396.49 98.2906 396.85 97.4806L411.43 65.2606L421.78 96.5806C422.14 97.4806 422.95 98.1106 423.94 98.1106H436C436.81 98.1106 437.35 97.3006 437.08 96.5806L415.21 35.8306C414.85 34.9306 414.04 34.3906 413.14 34.3906C412.24 34.3906 411.43 34.9306 411.07 35.7406L394.78 71.0206Z" fill="black"/>
<path d="M468.545 35.8306C468.185 34.9306 467.285 34.3906 466.385 34.3906C465.485 34.3906 464.585 34.9306 464.225 35.8306L436.595 96.6706C436.325 97.3006 436.865 98.1106 437.585 98.1106H450.455C451.445 98.1106 452.345 97.4806 452.705 96.5806L457.205 85.3306H475.745L480.245 96.5806C480.605 97.4806 481.505 98.1106 482.495 98.1106H495.365C496.085 98.1106 496.625 97.3006 496.265 96.6706L468.545 35.8306ZM466.475 62.3806L471.155 74.0806H461.705L466.475 62.3806Z" fill="black"/>
<path d="M551.861 69.3106C552.581 69.3106 553.121 68.7706 553.121 68.0506V66.0706C553.121 65.3506 552.581 64.8106 551.861 64.8106H526.301V39.6106H559.331C560.051 39.6106 560.591 39.0706 560.591 38.3506V36.3706C560.591 35.6506 560.051 35.1106 559.331 35.1106H521.891C521.171 35.1106 520.631 35.6506 520.631 36.3706V96.8506C520.631 97.5706 521.171 98.1106 521.891 98.1106H525.041C525.761 98.1106 526.301 97.5706 526.301 96.8506V69.3106H551.861Z" fill="black"/>
<path d="M607.532 96.8506C607.802 97.5706 608.522 98.0206 609.242 98.0206H613.112C613.742 98.0206 614.102 97.3906 613.922 96.8506L588.272 35.0206C588.002 34.5706 587.552 34.2106 587.012 34.2106C586.472 34.2106 585.932 34.5706 585.752 35.0206L560.102 96.8506C559.922 97.3906 560.282 98.0206 560.912 98.0206H564.782C565.502 98.0206 566.222 97.5706 566.492 96.8506L573.242 80.0206H600.692L607.532 96.8506ZM587.012 46.1806L598.982 75.8806H574.952L587.012 46.1806Z" fill="black"/>
<path d="M670.948 43.4806C671.398 43.0306 671.308 42.2206 670.768 41.7706C665.368 37.0906 658.888 34.1206 649.708 34.1206C625.678 34.1206 618.658 53.3806 618.658 66.2506C618.658 79.7506 625.678 98.7406 649.708 98.7406C658.438 98.7406 665.278 95.6806 670.588 91.5406C671.128 91.0906 671.218 90.2806 670.768 89.7406L669.238 87.6706C668.788 87.1306 667.978 87.0406 667.438 87.4006C662.848 90.7306 656.548 93.5206 649.708 93.5206C627.568 93.5206 624.508 73.2706 624.508 66.2506C624.508 59.5906 627.568 39.4306 649.708 39.0706C656.368 38.9806 662.848 41.9506 667.348 45.5506C667.888 46.0006 668.698 45.9106 669.148 45.4606L670.948 43.4806Z" fill="black"/>
<path d="M717.353 69.3106C718.073 69.3106 718.613 68.7706 718.613 68.0506V66.0706C718.613 65.3506 718.073 64.8106 717.353 64.8106H691.793V39.6106H724.823C725.543 39.6106 726.083 39.0706 726.083 38.3506V36.3706C726.083 35.6506 725.543 35.1106 724.823 35.1106H687.383C686.663 35.1106 686.123 35.6506 686.123 36.3706V96.8506C686.123 97.5706 686.663 98.1106 687.383 98.1106H724.823C725.543 98.1106 726.083 97.5706 726.083 96.8506V94.8706C726.083 94.1506 725.543 93.6106 724.823 93.6106H691.793V69.3106H717.353Z" fill="black"/>
<path d="M754.899 96.8506C754.899 97.5706 755.439 98.1106 756.159 98.1106H759.399C760.119 98.1106 760.659 97.5706 760.659 96.8506V39.6106H779.109C779.829 39.6106 780.369 39.0706 780.369 38.3506V36.3706C780.369 35.6506 779.829 35.1106 779.109 35.1106H736.719C735.999 35.1106 735.459 35.6506 735.459 36.3706V38.3506C735.459 39.0706 735.999 39.6106 736.719 39.6106H754.899V96.8506Z" fill="black"/>
<path fill-rule="evenodd" clip-rule="evenodd" d="M60.0485 4.79042C61.2812 4.10038 61.7211 2.54169 61.0311 1.30897C60.3411 0.0762528 58.7824 -0.363677 57.5497 0.326359L3.11935 30.7947C1.50329 31.6993 0.502332 33.4068 0.502332 35.2588L0.502319 98.8754C0.502319 99.2896 0.600805 99.6809 0.775641 100.027C0.653521 101.021 1.12512 102.037 2.04994 102.563L54.37 132.335C57.7805 134.276 62.016 131.813 62.016 127.889L62.016 63.8847C62.016 62.472 60.8708 61.3268 59.4581 61.3268C58.0454 61.3268 56.9002 62.472 56.9002 63.8847V127.889L33.5675 114.612L33.5675 51.0062L88.6634 20.1538C89.896 19.4636 90.3357 17.9048 89.6454 16.6722C88.9552 15.4396 87.3964 14.9999 86.1638 15.6902L31.0679 46.5425C29.4523 47.4473 28.4516 49.1545 28.4516 51.0062L28.4516 111.701L5.61818 98.7076L5.61819 35.2588L60.0485 4.79042ZM113.89 105.222C112.477 105.222 111.332 104.077 111.332 102.664L111.332 32.0683C111.332 30.6556 112.477 29.5104 113.89 29.5104C115.302 29.5104 116.448 30.6556 116.448 32.0683L116.448 102.664C116.448 104.077 115.302 105.222 113.89 105.222ZM87.0009 120.255C85.5882 120.255 84.443 119.11 84.443 117.697L84.4429 47.9765C84.4429 46.5638 85.5882 45.4186 87.0009 45.4185C88.4136 45.4186 89.5588 46.5638 89.5588 47.9765L89.5588 117.697C89.5588 119.11 88.4136 120.255 87.0009 120.255Z" fill="url(#paint0_linear)"/>
<defs>
<linearGradient id="paint0_linear" x1="0.502313" y1="113.213" x2="100.861" y2="-5.16652" gradientUnits="userSpaceOnUse">
<stop stop-color="#075B5A"/>
<stop offset="1" stop-color="#40FBA1"/>
</linearGradient>
</defs>
</svg>
